<svg xmlns="http://www.w3.org/2000/svg" fill="none" stroke="#fff" stroke-linecap="round" stroke-width="2" viewBox="0 0 652.26 360"><path d="M49.98 180.25 17.49 121.5m27.49-35.79L0 144.01m0-58.3v94.54" vector-effect="non-scaling-stroke"/><path d="m77.47 118.92 22.49 60.33 24.99-60.33 24.99 60.33 22.49-60.33" vector-effect="non-scaling-stroke"/><path d="M249.9 119.92v60.33m0-48.73c-7.5-10.05-19.99-13.97-32.49-9.8-12.49 4.2-19.99 15.55-19.99 28.54 0 12.75 7.5 23.99 19.99 28.24 12.5 4.25 24.99.25 32.49-9.75" vector-effect="non-scaling-stroke"/><path d="M302.38 119.92c12.5.58 22.49 11.1 22.49 23.59v36.74m-22.49-60.33c-10-.4-19.99 3.93-24.99 11.6m0 47.48v-59.08" vector-effect="non-scaling-stroke"/><path d="M407.36 173v1.25m0 0c7.5 4.25 17.49 6.25 24.99 6 12.5-.75 22.49-11.75 22.49-24.99 0-13.25-9.99-24.24-22.49-24.99-12.49 0-22.49-9.97-22.49-22.29 0-12.3 10-22.27 22.49-22.27 0 0 0 0 0 0 7.5.33 15 2.2 19.99 5.5" vector-effect="non-scaling-stroke"/><path d="M477.33 102.7s0 0 0 0m0 17.22v60.33" vector-effect="non-scaling-stroke"/><path d="M527.31 119.92c12.5.58 22.49 11.1 22.49 23.59v36.74m-22.49-60.33c-10-.4-19.99 3.93-24.99 11.6m0 47.48v-59.08" vector-effect="non-scaling-stroke"/><path d="M579.79 208.74c9.99 6.5 19.99 7.25 29.99 2.25 9.99-5 17.49-15.25 17.49-26.49v-64.58m0 11.6c-7.5-10.05-19.99-13.97-32.49-9.8-12.49 4.2-19.99 15.55-19.99 28.54 0 12.75 7.5 23.99 19.99 28.24 12.5 4.25 24.99.25 32.49-9.75" vector-effect="non-scaling-stroke"/></svg>